<svg version="1.1" viewBox="0.0 0.0 960.0 540.0" fill="none" stroke="none" stroke-linecap="square" stroke-miterlimit="10" xmlns:xlink="http://www.w3.org/1999/xlink" xmlns="http://www.w3.org/2000/svg"><clipPath id="g11eb23b5f9b_0_211.0"><path d="m0 0l960.0 0l0 540.0l-960.0 0l0 -540.0z" clip-rule="nonzero"/></clipPath><g clip-path="url(#g11eb23b5f9b_0_211.0)"><path fill="#ffffff" d="m0 0l960.0 0l0 540.0l-960.0 0z" fill-rule="evenodd"/><path fill="#000000" fill-opacity="0.0" d="m889.4969 489.57657l57.606323 0l0 41.322845l-57.606323 0z" fill-rule="evenodd"/><path fill="#595959" d="m923.84076 512.52234l1.171875 -0.15625q0.203125 1.0 0.6875 1.4375q0.484375 0.4375 1.171875 0.4375q0.828125 0 1.390625 -0.578125q0.578125 -0.578125 0.578125 -1.421875q0 -0.7968445 -0.53125 -1.3124695q-0.515625 -0.53125 -1.328125 -0.53125q-0.34375 0 -0.828125 0.125l0.125 -1.03125q0.125 0.015625 0.1875 0.015625q0.75 0 1.34375 -0.390625q0.609375 -0.390625 0.609375 -1.203125q0 -0.640625 -0.4375 -1.0625q-0.4375 -0.421875 -1.125 -0.421875q-0.6875 0 -1.140625 0.4375q-0.453125 0.421875 -0.59375 1.28125l-1.171875 -0.21875q0.21875 -1.171875 0.984375 -1.8125q0.765625 -0.65625 1.890625 -0.65625q0.78125 0 1.4375 0.34375q0.65625 0.328125 1.0 0.90625q0.359375 0.578125 0.359375 1.234375q0 0.609375 -0.34375 1.125q-0.328125 0.5 -0.96875 0.796875q0.84375 0.203125 1.3125 0.828125q0.46875 0.609375 0.46875 1.5312195q0 1.25 -0.921875 2.125q-0.90625 0.859375 -2.296875 0.859375q-1.25 0 -2.09375 -0.75q-0.828125 -0.75 -0.9375 -1.9375zm7.5843506 0.3125l1.125 -0.109375q0.140625 0.796875 0.546875 1.15625q0.40625 0.359375 1.03125 0.359375q0.53125 0 0.9375 -0.25q0.421875 -0.25 0.671875 -0.65625q0.265625 -0.421875 0.4375 -1.125q0.171875 -0.7030945 0.171875 -1.4218445q0 -0.078125 0 -0.234375q-0.359375 0.546875 -0.96875 0.90625q-0.59375 0.34375 -1.3125 0.34375q-1.1875 0 -2.015625 -0.859375q-0.8125 -0.859375 -0.8125 -2.265625q0 -1.453125 0.859375 -2.328125q0.859375 -0.890625 2.140625 -0.890625q0.9375 0 1.703125 0.5q0.78125 0.5 1.171875 1.4375q0.40625 0.921875 0.40625 2.671875q0 1.828125 -0.40625 2.9218445q-0.390625 1.078125 -1.171875 1.640625q-0.78125 0.5625 -1.84375 0.5625q-1.109375 0 -1.828125 -0.609375q-0.703125 -0.625 -0.84375 -1.75zm4.796875 -4.2187195q0 -1.0 -0.546875 -1.59375q-0.53125 -0.59375 -1.28125 -0.59375q-0.78125 0 -1.375 0.640625q-0.578125 0.640625 -0.578125 1.65625q0 0.90625 0.546875 1.484375q0.5625 0.5625 1.359375 0.5625q0.828125 0 1.34375 -0.5625q0.53125 -0.578125 0.53125 -1.59375z" fill-rule="nonzero"/><path shape-rendering="crispEdges" fill="#ea9999" d="m86.755905 74.0l110.162735 0l0 41.595802l-110.162735 0l0 -41.595802z" fill-rule="nonzero"/><path shape-rendering="crispEdges" fill="#b6d7a8" d="m196.91864 74.0l110.16272 0l0 41.595802l-110.16272 0l0 -41.595802z" fill-rule="nonzero"/><path shape-rendering="crispEdges" fill="#ea9999" d="m307.08136 74.0l110.16272 0l0 41.595802l-110.16272 0l0 -41.595802z" fill-rule="nonzero"/><path shape-rendering="crispEdges" fill="#ea9999" d="m86.755905 115.5958l110.162735 0l0 41.595802l-110.162735 0l0 -41.595802z" fill-rule="nonzero"/><path shape-rendering="crispEdges" fill="#b6d7a8" d="m196.91864 115.5958l110.16272 0l0 41.595802l-110.16272 0l0 -41.595802z" fill-rule="nonzero"/><path shape-rendering="crispEdges" fill="#b6d7a8" d="m307.08136 115.5958l110.16272 0l0 41.595802l-110.16272 0l0 -41.595802z" fill-rule="nonzero"/><path shape-rendering="crispEdges" fill="#ea9999" d="m86.755905 157.1916l110.162735 0l0 41.595795l-110.162735 0l0 -41.595795z" fill-rule="nonzero"/><path shape-rendering="crispEdges" fill="#b6d7a8" d="m196.91864 157.1916l110.16272 0l0 41.595795l-110.16272 0l0 -41.595795z" fill-rule="nonzero"/><path shape-rendering="crispEdges" fill="#b6d7a8" d="m307.08136 157.1916l110.16272 0l0 41.595795l-110.16272 0l0 -41.595795z" fill-rule="nonzero"/><path shape-rendering="crispEdges" fill="#ea9999" d="m86.755905 198.7874l110.162735 0l0 41.59581l-110.162735 0l0 -41.59581z" fill-rule="nonzero"/><path shape-rendering="crispEdges" fill="#b6d7a8" d="m196.91864 198.7874l110.16272 0l0 41.59581l-110.16272 0l0 -41.59581z" fill-rule="nonzero"/><path shape-rendering="crispEdges" fill="#ea9999" d="m307.08136 198.7874l110.16272 0l0 41.59581l-110.16272 0l0 -41.59581z" fill-rule="nonzero"/><path shape-rendering="crispEdges" fill="#ea9999" d="m86.755905 240.38321l110.162735 0l0 41.595795l-110.162735 0l0 -41.595795z" fill-rule="nonzero"/><path shape-rendering="crispEdges" fill="#b6d7a8" d="m196.91864 240.38321l110.16272 0l0 41.595795l-110.16272 0l0 -41.595795z" fill-rule="nonzero"/><path shape-rendering="crispEdges" fill="#ea9999" d="m307.08136 240.38321l110.16272 0l0 41.595795l-110.16272 0l0 -41.595795z" fill-rule="nonzero"/><path shape-rendering="crispEdges" fill="#ea9999" d="m86.755905 281.979l110.162735 0l0 41.595795l-110.162735 0l0 -41.595795z" fill-rule="nonzero"/><path shape-rendering="crispEdges" fill="#b6d7a8" d="m196.91864 281.979l110.16272 0l0 41.595795l-110.16272 0l0 -41.595795z" fill-rule="nonzero"/><path shape-rendering="crispEdges" fill="#ea9999" d="m307.08136 281.979l110.16272 0l0 41.595795l-110.16272 0l0 -41.595795z" fill-rule="nonzero"/><path shape-rendering="crispEdges" fill="#ea9999" d="m86.755905 323.5748l110.162735 0l0 41.595795l-110.162735 0l0 -41.595795z" fill-rule="nonzero"/><path shape-rendering="crispEdges" fill="#b6d7a8" d="m196.91864 323.5748l110.16272 0l0 41.595795l-110.16272 0l0 -41.595795z" fill-rule="nonzero"/><path shape-rendering="crispEdges" fill="#ea9999" d="m307.08136 323.5748l110.16272 0l0 41.595795l-110.16272 0l0 -41.595795z" fill-rule="nonzero"/><path shape-rendering="crispEdges" fill="#ea9999" d="m86.755905 365.1706l110.162735 0l0 41.595825l-110.162735 0l0 -41.595825z" fill-rule="nonzero"/><path shape-rendering="crispEdges" fill="#b6d7a8" d="m196.91864 365.1706l110.16272 0l0 41.595825l-110.16272 0l0 -41.595825z" fill-rule="nonzero"/><path shape-rendering="crispEdges" fill="#ea9999" d="m307.08136 365.1706l110.16272 0l0 41.595825l-110.16272 0l0 -41.595825z" fill-rule="nonzero"/><path shape-rendering="crispEdges" fill="#b6d7a8" d="m86.755905 406.76642l110.162735 0l0 41.595795l-110.162735 0l0 -41.595795z" fill-rule="nonzero"/><path shape-rendering="crispEdges" fill="#b6d7a8" d="m196.91864 406.76642l110.16272 0l0 41.595795l-110.16272 0l0 -41.595795z" fill-rule="nonzero"/><path shape-rendering="crispEdges" fill="#ea9999" d="m307.08136 406.76642l110.16272 0l0 41.595795l-110.16272 0l0 -41.595795z" fill-rule="nonzero"/><path shape-rendering="crispEdges" fill="#ea9999" d="m86.755905 448.3622l110.162735 0l0 41.595795l-110.162735 0l0 -41.595795z" fill-rule="nonzero"/><path shape-rendering="crispEdges" fill="#b6d7a8" d="m196.91864 448.3622l110.16272 0l0 41.595795l-110.16272 0l0 -41.595795z" fill-rule="nonzero"/><path shape-rendering="crispEdges" fill="#ea9999" d="m307.08136 448.3622l110.16272 0l0 41.595795l-110.16272 0l0 -41.595795z" fill-rule="nonzero"/><path stroke="#9e9e9e" stroke-width="1.0" stroke-linecap="butt" d="m86.755905 73.50131l0 416.95538" fill-rule="nonzero"/><path stroke="#9e9e9e" stroke-width="1.0" stroke-linecap="butt" d="m196.91864 73.50131l0 416.95538" fill-rule="nonzero"/><path stroke="#9e9e9e" stroke-width="1.0" stroke-linecap="butt" d="m307.08136 73.50131l0 416.95538" fill-rule="nonzero"/><path stroke="#9e9e9e" stroke-width="1.0" stroke-linecap="butt" d="m417.24408 73.50131l0 416.95538" fill-rule="nonzero"/><path stroke="#9e9e9e" stroke-width="1.0" stroke-linecap="butt" d="m86.25722 74.0l331.48553 0" fill-rule="nonzero"/><path stroke="#9e9e9e" stroke-width="1.0" stroke-linecap="butt" d="m86.25722 115.5958l331.48553 0" fill-rule="nonzero"/><path stroke="#9e9e9e" stroke-width="1.0" stroke-linecap="butt" d="m86.25722 157.1916l331.48553 0" fill-rule="nonzero"/><path stroke="#9e9e9e" stroke-width="1.0" stroke-linecap="butt" d="m86.25722 198.7874l331.48553 0" fill-rule="nonzero"/><path stroke="#9e9e9e" stroke-width="1.0" stroke-linecap="butt" d="m86.25722 240.38321l331.48553 0" fill-rule="nonzero"/><path stroke="#9e9e9e" stroke-width="1.0" stroke-linecap="butt" d="m86.25722 281.979l331.48553 0" fill-rule="nonzero"/><path stroke="#9e9e9e" stroke-width="1.0" stroke-linecap="butt" d="m86.25722 323.5748l331.48553 0" fill-rule="nonzero"/><path stroke="#9e9e9e" stroke-width="1.0" stroke-linecap="butt" d="m86.25722 365.1706l331.48553 0" fill-rule="nonzero"/><path stroke="#9e9e9e" stroke-width="1.0" stroke-linecap="butt" d="m86.25722 406.76642l331.48553 0" fill-rule="nonzero"/><path stroke="#9e9e9e" stroke-width="1.0" stroke-linecap="butt" d="m86.25722 448.3622l331.48553 0" fill-rule="nonzero"/><path stroke="#9e9e9e" stroke-width="1.0" stroke-linecap="butt" d="m86.25722 489.958l331.48553 0" fill-rule="nonzero"/><path shape-rendering="crispEdges" fill="#b6d7a8" d="m542.7559 70.0l110.16272 0l0 48.0l-110.16272 0l0 -48.0z" fill-rule="nonzero"/><path shape-rendering="crispEdges" fill="#b6d7a8" d="m652.91864 70.0l110.16272 0l0 48.0l-110.16272 0l0 -48.0z" fill-rule="nonzero"/><path shape-rendering="crispEdges" fill="#ea9999" d="m763.08136 70.0l110.16272 0l0 48.0l-110.16272 0l0 -48.0z" fill-rule="nonzero"/><path shape-rendering="crispEdges" fill="#b6d7a8" d="m542.7559 118.0l110.16272 0l0 41.595795l-110.16272 0l0 -41.595795z" fill-rule="nonzero"/><path shape-rendering="crispEdges" fill="#b6d7a8" d="m652.91864 118.0l110.16272 0l0 41.595795l-110.16272 0l0 -41.595795z" fill-rule="nonzero"/><path shape-rendering="crispEdges" fill="#b6d7a8" d="m763.08136 118.0l110.16272 0l0 41.595795l-110.16272 0l0 -41.595795z" fill-rule="nonzero"/><path shape-rendering="crispEdges" fill="#ea9999" d="m542.7559 159.5958l110.16272 0l0 41.59581l-110.16272 0l0 -41.59581z" fill-rule="nonzero"/><path shape-rendering="crispEdges" fill="#b6d7a8" d="m652.91864 159.5958l110.16272 0l0 41.59581l-110.16272 0l0 -41.59581z" fill-rule="nonzero"/><path shape-rendering="crispEdges" fill="#b6d7a8" d="m763.08136 159.5958l110.16272 0l0 41.59581l-110.16272 0l0 -41.59581z" fill-rule="nonzero"/><path shape-rendering="crispEdges" fill="#b6d7a8" d="m542.7559 201.1916l110.16272 0l0 41.595795l-110.16272 0l0 -41.595795z" fill-rule="nonzero"/><path shape-rendering="crispEdges" fill="#b6d7a8" d="m652.91864 201.1916l110.16272 0l0 41.595795l-110.16272 0l0 -41.595795z" fill-rule="nonzero"/><path shape-rendering="crispEdges" fill="#ea9999" d="m763.08136 201.1916l110.16272 0l0 41.595795l-110.16272 0l0 -41.595795z" fill-rule="nonzero"/><path shape-rendering="crispEdges" fill="#b6d7a8" d="m542.7559 242.7874l110.16272 0l0 41.59581l-110.16272 0l0 -41.59581z" fill-rule="nonzero"/><path shape-rendering="crispEdges" fill="#b6d7a8" d="m652.91864 242.7874l110.16272 0l0 41.59581l-110.16272 0l0 -41.59581z" fill-rule="nonzero"/><path shape-rendering="crispEdges" fill="#b6d7a8" d="m763.08136 242.7874l110.16272 0l0 41.59581l-110.16272 0l0 -41.59581z" fill-rule="nonzero"/><path shape-rendering="crispEdges" fill="#b6d7a8" d="m542.7559 284.3832l110.16272 0l0 41.595795l-110.16272 0l0 -41.595795z" fill-rule="nonzero"/><path shape-rendering="crispEdges" fill="#b6d7a8" d="m652.91864 284.3832l110.16272 0l0 41.595795l-110.16272 0l0 -41.595795z" fill-rule="nonzero"/><path shape-rendering="crispEdges" fill="#b6d7a8" d="m763.08136 284.3832l110.16272 0l0 41.595795l-110.16272 0l0 -41.595795z" fill-rule="nonzero"/><path shape-rendering="crispEdges" fill="#b6d7a8" d="m542.7559 325.979l110.16272 0l0 41.595795l-110.16272 0l0 -41.595795z" fill-rule="nonzero"/><path shape-rendering="crispEdges" fill="#ea9999" d="m652.91864 325.979l110.16272 0l0 41.595795l-110.16272 0l0 -41.595795z" fill-rule="nonzero"/><path shape-rendering="crispEdges" fill="#b6d7a8" d="m763.08136 325.979l110.16272 0l0 41.595795l-110.16272 0l0 -41.595795z" fill-rule="nonzero"/><path shape-rendering="crispEdges" fill="#b6d7a8" d="m542.7559 367.5748l110.16272 0l0 41.595795l-110.16272 0l0 -41.595795z" fill-rule="nonzero"/><path shape-rendering="crispEdges" fill="#b6d7a8" d="m652.91864 367.5748l110.16272 0l0 41.595795l-110.16272 0l0 -41.595795z" fill-rule="nonzero"/><path shape-rendering="crispEdges" fill="#b6d7a8" d="m763.08136 367.5748l110.16272 0l0 41.595795l-110.16272 0l0 -41.595795z" fill-rule="nonzero"/><path shape-rendering="crispEdges" fill="#b6d7a8" d="m542.7559 409.1706l110.16272 0l0 41.595825l-110.16272 0l0 -41.595825z" fill-rule="nonzero"/><path shape-rendering="crispEdges" fill="#ea9999" d="m652.91864 409.1706l110.16272 0l0 41.595825l-110.16272 0l0 -41.595825z" fill-rule="nonzero"/><path shape-rendering="crispEdges" fill="#b6d7a8" d="m763.08136 409.1706l110.16272 0l0 41.595825l-110.16272 0l0 -41.595825z" fill-rule="nonzero"/><path shape-rendering="crispEdges" fill="#b6d7a8" d="m542.7559 450.76642l110.16272 0l0 41.595795l-110.16272 0l0 -41.595795z" fill-rule="nonzero"/><path shape-rendering="crispEdges" fill="#b6d7a8" d="m652.91864 450.76642l110.16272 0l0 41.595795l-110.16272 0l0 -41.595795z" fill-rule="nonzero"/><path shape-rendering="crispEdges" fill="#b6d7a8" d="m763.08136 450.76642l110.16272 0l0 41.595795l-110.16272 0l0 -41.595795z" fill-rule="nonzero"/><path stroke="#9e9e9e" stroke-width="1.0" stroke-linecap="butt" d="m542.7559 69.50131l0 423.3596" fill-rule="nonzero"/><path stroke="#9e9e9e" stroke-width="1.0" stroke-linecap="butt" d="m652.91864 69.50131l0 423.3596" fill-rule="nonzero"/><path stroke="#9e9e9e" stroke-width="1.0" stroke-linecap="butt" d="m763.08136 69.50131l0 423.3596" fill-rule="nonzero"/><path stroke="#9e9e9e" stroke-width="1.0" stroke-linecap="butt" d="m873.2441 69.50131l0 423.3596" fill-rule="nonzero"/><path stroke="#9e9e9e" stroke-width="1.0" stroke-linecap="butt" d="m542.2572 70.0l331.4856 0" fill-rule="nonzero"/><path stroke="#9e9e9e" stroke-width="1.0" stroke-linecap="butt" d="m542.2572 118.0l331.4856 0" fill-rule="nonzero"/><path stroke="#9e9e9e" stroke-width="1.0" stroke-linecap="butt" d="m542.2572 159.5958l331.4856 0" fill-rule="nonzero"/><path stroke="#9e9e9e" stroke-width="1.0" stroke-linecap="butt" d="m542.2572 201.1916l331.4856 0" fill-rule="nonzero"/><path stroke="#9e9e9e" stroke-width="1.0" stroke-linecap="butt" d="m542.2572 242.7874l331.4856 0" fill-rule="nonzero"/><path stroke="#9e9e9e" stroke-width="1.0" stroke-linecap="butt" d="m542.2572 284.3832l331.4856 0" fill-rule="nonzero"/><path stroke="#9e9e9e" stroke-width="1.0" stroke-linecap="butt" d="m542.2572 325.979l331.4856 0" fill-rule="nonzero"/><path stroke="#9e9e9e" stroke-width="1.0" stroke-linecap="butt" d="m542.2572 367.5748l331.4856 0" fill-rule="nonzero"/><path stroke="#9e9e9e" stroke-width="1.0" stroke-linecap="butt" d="m542.2572 409.1706l331.4856 0" fill-rule="nonzero"/><path stroke="#9e9e9e" stroke-width="1.0" stroke-linecap="butt" d="m542.2572 450.76642l331.4856 0" fill-rule="nonzero"/><path stroke="#9e9e9e" stroke-width="1.0" stroke-linecap="butt" d="m542.2572 492.3622l331.4856 0" fill-rule="nonzero"/></g></svg>